<?xml version="1.0" encoding="utf-8"?>
<!-- Generator: Adobe Illustrator 16.0.0, SVG Export Plug-In . SVG Version: 6.00 Build 0)  -->
<!DOCTYPE svg PUBLIC "-//W3C//DTD SVG 1.1//EN" "http://www.w3.org/Graphics/SVG/1.1/DTD/svg11.dtd">
<svg version="1.1" id="Layer_1" xmlns="http://www.w3.org/2000/svg" xmlns:xlink="http://www.w3.org/1999/xlink" x="0px" y="0px"
	 width="418px" height="179px" viewBox="0 0 418 179" enable-background="new 0 0 418 179" xml:space="preserve">
<g>
	<g>
		<g>
			<path fill="#FFFFFF" d="M84.814,135.011l7.106,9.119c0,0-4.987,3.906-4.992,3.9l-7.142-9.106L84.814,135.011z"/>
			<path fill="#FFFFFF" d="M42.602,93.028c-1.407-0.474-3.291-0.297-4.669,0.68c-0.18,0.135-0.521,0.107-0.645,0
				c-0.054-0.042-2.872-2.31-2.872-2.31l15.369-12.024l1.547,3.345c0.077,0.165,0.026,0.481-0.142,0.637
				c-1.021,0.925-1.742,2.206-1.77,4.311c-0.008,2.213,1.427,3.696,1.941,4.386c-0.924,0.721-4.077,3.198-5.004,3.926
				C45.145,94.224,44.169,93.419,42.602,93.028z"/>
			<path fill="#FFFFFF" d="M87.775,152.969c0.857,1.024,2.392,1.167,3.291,0.477l5.011-3.914c0.894-0.699,1.214-2.163,0.362-3.255
				l-0.725-0.926c-0.872-1.115-2.349-1.134-3.246-0.408l-5.006,3.902c-0.909,0.718-1.128,2.251-0.433,3.172L87.775,152.969z"/>
			<path fill="#FFFFFF" d="M73,119.958l8.205,10.445l-4.98,3.891l-7.244-9.195L73,119.958z M54.684,96.427l13.073,16.749
				l-4.02,5.149l-14.066-17.988L54.684,96.427z"/>
			<path fill="#FFFFFF" d="M82.4,130.996l-5.919,4.623c-1.377,1.057,0.706,3.834,2.138,2.738l5.929-4.612
				C85.916,132.676,83.755,129.938,82.4,130.996z"/>
			<path fill="#FFFFFF" d="M52.375,92.542l-5.919,4.625c-1.377,1.055,0.706,3.832,2.138,2.734l5.929-4.61
				C55.891,94.222,53.73,91.483,52.375,92.542z"/>
			<path fill="#FFFFFF" d="M33.529,90.632L25.864,84.7c-0.118-0.093-0.085-0.551,0.345-0.465c0.071,0.008,4.794,0.446,4.794,0.446
				l-0.033-3.413c-0.015-0.219,0.313-0.513,0.54-0.44c0.032,0.007,3.29,0.908,3.29,0.908l-1.597-7.27
				c-0.074-0.282,0.308-0.587,0.58-0.46c0.004,0,6.637,3.338,6.637,3.338l-0.05-3.394c-0.023-0.231,0.287-0.543,0.585-0.458
				c0.041,0.008,3.251,0.894,3.251,0.894l0.736-4.789c0.02-0.395,0.375-0.367,0.44-0.297c0.013,0.024,3.993,8.887,3.993,8.887
				L33.529,90.632z"/>
		</g>
		<g>
			<path fill="#FFFFFF" d="M52.175,134.734l-7.106,9.12c0,0,4.987,3.906,4.992,3.9l7.142-9.106L52.175,134.734z"/>
			<path fill="#FFFFFF" d="M94.172,93.028c1.407-0.474,3.292-0.297,4.669,0.68c0.18,0.135,0.522,0.107,0.645,0
				c0.054-0.042,2.764-2.214,2.764-2.214l-15.338-12.1l-1.47,3.325c-0.077,0.165-0.026,0.481,0.143,0.637
				c1.021,0.925,1.742,2.206,1.769,4.311c0.008,2.213-1.427,3.696-1.942,4.386c0.924,0.721,4.077,3.198,5.004,3.926
				C91.629,94.224,92.605,93.418,94.172,93.028z"/>
			<path fill="#FFFFFF" d="M49.214,152.694c-0.857,1.025-2.392,1.165-3.292,0.476l-5.01-3.915c-0.894-0.698-1.214-2.162-0.362-3.254
				l0.724-0.928c0.872-1.115,2.349-1.132,3.246-0.405l5.006,3.899c0.908,0.721,1.127,2.253,0.432,3.174L49.214,152.694z"/>
			<polygon fill="#FFFFFF" points="82.09,96.427 55.569,130.403 60.55,134.294 87.104,100.337 			"/>
			<path fill="#FFFFFF" d="M54.504,130.829l5.919,4.624c1.377,1.057-0.706,3.833-2.138,2.736l-5.929-4.611
				C50.988,132.509,53.148,129.771,54.504,130.829z"/>
			<path fill="#FFFFFF" d="M84.4,92.542l5.918,4.625c1.378,1.055-0.705,3.832-2.137,2.734l-5.929-4.61
				C80.883,94.222,83.044,91.483,84.4,92.542z"/>
			<path fill="#FFFFFF" d="M103.113,90.766l7.797-6.065c0.118-0.093,0.085-0.551-0.345-0.465c-0.071,0.008-4.793,0.446-4.793,0.446
				l0.033-3.413c0.015-0.219-0.313-0.513-0.54-0.44c-0.033,0.007-3.291,0.908-3.291,0.908l1.597-7.27
				c0.074-0.282-0.308-0.587-0.58-0.46c-0.004,0-6.637,3.338-6.637,3.338l0.051-3.394c0.022-0.231-0.287-0.543-0.586-0.458
				c-0.04,0.008-3.251,0.894-3.251,0.894l-0.736-4.789c-0.02-0.395-0.374-0.367-0.44-0.297c-0.012,0.024-4.032,9.134-4.032,9.134
				L103.113,90.766z"/>
		</g>
	</g>
	<path fill="#FFFFFF" d="M68.137,169.852c-27.255,0-49.348-22.09-49.346-49.343l0.005-58.625l1.313-0.003l96.066-0.004l1.313,0.003
		l0.001,58.626C117.487,147.758,95.393,169.851,68.137,169.852z M68.137,167.227c25.806,0,46.725-20.92,46.726-46.722L114.862,64.5
		L21.42,64.504l-0.005,56.004C21.414,146.313,42.332,167.228,68.137,167.227z"/>
	<g>
		<path fill="#FFFFFF" d="M39.865,56.533c0,0-13.981-37.747-14.004-37.784c-0.075-0.893,0.416-0.757,0.912-0.571l0.556,0.278
			c1.689,0.854,3.398,1.417,5.184,1.897c1.884,0.426,3.396,0.657,4.528,2.453c0.564,1.086,0.514,1.92,0.211,3.157
			c-0.084,0.367,0.277,0.102,0.441-0.284c1.383-2.157,2.403-3.051,5.336-3.227c2.474-0.147,4.519,0.694,5.594,3.284
			c0.762,2.155-0.052,4.161-1.991,5.817c-0.333,0.496-0.4,0.676-0.305,1.281c0.035,0.427,1.088,0.927,1.479,0.962
			c0.348,0.031-2.646,3.862-5.575,1.183c-0.511-1.264-0.563-1.871-0.349-3.452c0.114-1.076-1.878-1.586-2.355,0.594
			c-0.648,3.707,1.177,6.92,3.526,8.556c2.094,1.068,4.901,0.925,6.558-0.407c0.896-0.773,1.304-1.097,1.457-2.873
			c-0.882-0.479-1.497-0.922-1.777-1.968c-0.543-2.025,0.334-3.772,2.359-4.314c2.024-0.542,3.923,1.01,3.923,3.106
			c0,0.972-0.586,2.008-1.187,2.68c0.883,2.57,2.59,2.503,4.448,2.579c2.487,0.137,6.266-1.496,6.352-7.569
			c-0.056-1.096-0.937-4.944-2.505-5.029c-1.013,0.007-1.285,0.813-0.882,1.569c0.312,0.513,0.598,0.698,0.58,1.924
			c-0.59,2.85-4.865,2.599-4.904,2.48c2.427-3.604-4.263-4.288-4.015-8.572c0.18-3.068,2.061-4.175,3.662-4.684
			c1.727-0.431,3.241-0.272,4.7,0.51c0.443,0.227,0.692,0.452,1.252,1.011c0.058,0.077,0.303,0.151,0.182-0.121
			c-0.042-0.113-0.133-0.298-0.305-0.68c-0.602-1.37-0.346-3.158,0.546-4.425c1.07-1.434,2.623-2.957,3.362-4.599
			c0.199-0.442,0.652-1.695,0.932-2.05c0.109-0.096,0.222-0.162,0.339-0.185c0.13,0.025,0.254,0.104,0.374,0.216
			c0.279,0.357,0.737,1.584,0.963,2.085c0.743,1.64,2.246,3.1,3.316,4.533c0.892,1.267,1.147,3.055,0.546,4.425
			c-0.114,0.281-0.31,0.523-0.353,0.636c-0.081,0.187,0.079,0.178,0.147,0.089c0.786-0.655,0.737-0.595,1.335-0.936
			c1.458-0.782,2.972-0.94,4.699-0.51c1.601,0.509,3.482,1.616,3.663,4.684c0.248,4.284-6.441,4.968-4.015,8.572
			c-0.04,0.119-4.315,0.37-4.905-2.48c-0.017-1.226,0.269-1.411,0.581-1.924c0.403-0.756,0.131-1.562-0.882-1.569
			c-1.568,0.084-2.448,3.933-2.505,5.029c0.085,6.073,3.865,7.707,6.352,7.569c1.858-0.075,3.565-0.008,4.448-2.579
			c-0.601-0.671-1.187-1.708-1.187-2.68c0-2.096,1.899-3.648,3.923-3.106c2.025,0.542,2.902,2.29,2.359,4.314
			c-0.28,1.046-0.895,1.489-1.777,1.968c0.153,1.776,0.56,2.099,1.457,2.873c1.657,1.332,4.463,1.475,6.558,0.407
			c2.349-1.636,4.174-4.849,3.525-8.556c-0.476-2.18-2.468-1.669-2.354-0.594c0.214,1.582,0.161,2.188-0.349,3.452
			c-2.929,2.679-5.923-1.151-5.575-1.183c0.391-0.036,1.443-0.536,1.479-0.962c0.095-0.605,0.027-0.785-0.305-1.281
			c-1.939-1.656-2.753-3.662-1.991-5.817c1.075-2.59,3.12-3.432,5.594-3.284c2.933,0.176,3.953,1.07,5.335,3.227
			c0.103,0.158,0.447,1.035,0.671,0.608c-0.181-1.327-0.698-2.622,0.157-3.927c1.131-1.795,2.467-1.582,4.352-2.008
			c1.785-0.48,3.34-0.977,5.029-1.83l0.719-0.314c0.583-0.404,1.145-0.404,0.903,0.541c-0.024,0.037-14.004,37.784-14.004,37.784
			H39.865z"/>
	</g>
</g>
<g>
	<g>
		<path fill="#FFFFFF" d="M146.016,158.62c0.231,0.753,0.376,1.07,0.665,1.07c0.348,0,0.492-0.348,1.041-1.531
			c1.243-2.66,5.087-12.891,5.636-14.365h0.058l6.012,14.479c0.434,1.069,0.607,1.417,0.896,1.417c0.375,0,0.52-0.348,0.838-1.359
			c1.417-4.335,4.451-13.526,5.781-17.168c0.607-1.646,0.925-2.804,1.619-3.063c0.318-0.115,0.722-0.145,1.011-0.145
			c0.26,0,0.405-0.086,0.405-0.289c0-0.172-0.203-0.231-0.521-0.231c-0.954,0-2.197,0.087-2.399,0.087
			c-0.26,0-1.474-0.087-3.006-0.087c-0.434,0-0.665,0.06-0.665,0.261c0,0.174,0.202,0.26,0.491,0.26
			c1.127,0,1.387,0.404,1.387,0.868c0,0.403-0.087,1.011-0.289,1.676c-1.011,3.381-3.323,11.012-3.844,12.947h-0.086l-6.012-14.537
			c-0.376-0.925-0.521-1.357-0.839-1.357c-0.23,0-0.404,0.229-0.722,1.039l-5.608,15.059h-0.086
			c-0.521-1.618-3.208-10.376-3.7-12.283c-0.347-1.301-0.636-2.283-0.636-2.658c0-0.318,0.058-0.521,0.318-0.636
			c0.202-0.117,0.491-0.117,0.722-0.117c0.289,0,0.521-0.028,0.521-0.26c0-0.174-0.203-0.261-0.607-0.261
			c-1.676,0-2.948,0.087-3.208,0.087c-0.261,0-1.85-0.087-3.353-0.087c-0.405,0-0.636,0.06-0.636,0.261
			c0,0.231,0.173,0.26,0.462,0.26c0.26,0,0.838,0.058,1.156,0.261c0.404,0.289,0.722,0.982,1.07,2.051L146.016,158.62z"/>
		<path fill="#FFFFFF" d="M196.002,145.816c0-4.393,0-5.201,0.058-6.128c0.058-1.011,0.289-1.501,1.069-1.646
			c0.347-0.058,0.52-0.087,0.809-0.087c0.232,0,0.405-0.057,0.405-0.26c0-0.201-0.203-0.261-0.607-0.261
			c-0.983,0-2.803,0.087-3.497,0.087c-0.693,0-2.514-0.087-4.046-0.087c-0.434,0-0.636,0.06-0.636,0.261
			c0,0.203,0.173,0.26,0.491,0.26c0.405,0,0.896,0.029,1.127,0.087c0.954,0.202,1.186,0.666,1.243,1.646
			c0.059,0.927,0.059,1.735,0.059,6.128v5.087c0,2.66,0,4.942-0.145,6.156c-0.116,0.839-0.26,1.475-0.839,1.59
			c-0.26,0.058-0.607,0.115-1.04,0.115c-0.348,0-0.463,0.088-0.463,0.231c0,0.203,0.202,0.289,0.578,0.289
			c1.157,0,2.978-0.086,3.642-0.086c0.723,0,2.543,0.086,4.162,0.086c0.318,0,0.548-0.086,0.548-0.289
			c0-0.144-0.144-0.231-0.375-0.231c-0.375,0-1.012-0.058-1.416-0.115c-0.723-0.115-0.983-0.751-1.041-1.561
			c-0.087-1.243-0.087-3.525-0.087-6.186v-2.629h0.145l0.318,0.433c0.607,0.839,6.301,7.515,7.573,8.642
			c1.243,1.098,2.023,1.733,3.584,1.879c0.607,0.058,1.127,0.058,1.994,0.058h2.514c0.55,0,0.693-0.086,0.693-0.289
			c0-0.174-0.173-0.231-0.375-0.231c-0.347,0-0.925-0.087-1.792-0.434c-1.561-0.606-2.861-1.907-4.133-3.121
			c-1.128-1.068-6.792-7.169-7.833-8.526c0.982-1.04,5.347-5.375,6.242-6.242c1.243-1.215,2.226-1.821,3.122-2.168
			c0.549-0.201,1.271-0.318,1.676-0.318c0.289,0,0.434-0.057,0.434-0.26c0-0.201-0.203-0.261-0.492-0.261
			c-0.896,0-2.485,0.087-3.381,0.087c-0.781,0-2.37-0.087-2.977-0.087c-0.318,0-0.462,0.06-0.462,0.261
			c0,0.174,0.116,0.231,0.375,0.289c0.289,0.058,0.405,0.26,0.405,0.578c0,0.49-0.636,1.214-1.445,2.168
			c-0.838,0.982-5.058,5.288-6.041,6.357h-0.145V145.816z"/>
		<path fill="#FFFFFF" d="M220.604,150.903c0,2.66,0,4.942-0.146,6.156c-0.115,0.839-0.261,1.475-0.839,1.59
			c-0.259,0.058-0.605,0.115-1.038,0.115c-0.349,0-0.463,0.088-0.463,0.231c0,0.203,0.202,0.289,0.578,0.289
			c1.156,0,2.976-0.086,3.525-0.086c0.435,0,2.571,0.086,4.249,0.086c0.375,0,0.578-0.086,0.578-0.289
			c0-0.144-0.115-0.231-0.349-0.231c-0.345,0-0.98-0.058-1.415-0.115c-0.867-0.115-1.04-0.751-1.128-1.59
			c-0.144-1.214-0.144-3.496-0.144-6.185v-0.405c0-0.173,0.086-0.23,0.231-0.23l2.515,0.058c0.201,0,0.375,0.028,0.519,0.202
			c0.377,0.434,1.706,2.398,2.862,3.987c1.618,2.227,2.718,3.585,3.959,4.251c0.752,0.402,1.475,0.548,3.094,0.548h2.746
			c0.345,0,0.548-0.058,0.548-0.289c0-0.144-0.115-0.231-0.347-0.231s-0.492-0.027-0.81-0.087c-0.434-0.086-1.617-0.289-3.236-1.965
			c-1.705-1.792-3.7-4.363-6.272-7.602c2.919-2.369,3.815-4.335,3.815-6.474c0-1.937-1.155-3.411-1.965-3.96
			c-1.561-1.069-3.498-1.243-5.317-1.243c-0.896,0-3.094,0.087-4.075,0.087c-0.608,0-2.428-0.087-3.96-0.087
			c-0.435,0-0.636,0.06-0.636,0.261c0,0.203,0.173,0.26,0.491,0.26c0.405,0,0.896,0.029,1.126,0.087
			c0.953,0.202,1.187,0.666,1.244,1.646c0.058,0.927,0.058,1.735,0.058,6.128V150.903z M224.014,139.313
			c0-0.23,0.058-0.347,0.259-0.404c0.291-0.086,0.812-0.116,1.532-0.116c1.707,0,4.423,1.187,4.423,5.29
			c0,2.369-0.839,3.699-1.705,4.335c-0.521,0.376-0.896,0.492-2.052,0.492c-0.724,0-1.59-0.088-2.198-0.291
			c-0.201-0.085-0.259-0.201-0.259-0.519V139.313z"/>
		<path fill="#FFFFFF" d="M255.959,151.741c0.146,0,0.23,0.059,0.289,0.202l2.312,6.128c0.146,0.348-0.058,0.606-0.26,0.666
			c-0.288,0.027-0.404,0.085-0.404,0.259c0,0.203,0.347,0.203,0.867,0.231c2.313,0.058,4.423,0.058,5.462,0.058
			c1.069,0,1.33-0.058,1.33-0.289c0-0.201-0.144-0.231-0.375-0.231c-0.347,0-0.781-0.027-1.215-0.115
			c-0.606-0.146-1.445-0.55-2.544-3.15c-1.85-4.394-6.473-16.186-7.166-17.775c-0.29-0.664-0.463-0.925-0.724-0.925
			c-0.289,0-0.463,0.318-0.809,1.156l-7.255,18.151c-0.578,1.444-1.128,2.428-2.457,2.601c-0.231,0.03-0.636,0.058-0.896,0.058
			c-0.231,0-0.347,0.058-0.347,0.231c0,0.231,0.174,0.289,0.549,0.289c1.502,0,3.092-0.086,3.409-0.086
			c0.896,0,2.141,0.086,3.064,0.086c0.317,0,0.491-0.058,0.491-0.289c0-0.174-0.086-0.231-0.433-0.231h-0.435
			c-0.896,0-1.156-0.376-1.156-0.896c0-0.345,0.146-1.04,0.435-1.762l1.561-4.133c0.058-0.174,0.115-0.232,0.26-0.232H255.959z
			 M250.092,150.297c-0.114,0-0.145-0.088-0.114-0.203l2.658-7.108c0.028-0.116,0.087-0.261,0.172-0.261
			c0.088,0,0.117,0.145,0.146,0.261l2.601,7.139c0.03,0.085,0,0.173-0.144,0.173H250.092z"/>
		<path fill="#FFFFFF" d="M276.892,145.816c0-4.393,0-5.201,0.058-6.128c0.059-1.011,0.289-1.501,1.07-1.646
			c0.345-0.058,0.519-0.087,0.809-0.087c0.231,0,0.405-0.057,0.405-0.26c0-0.201-0.203-0.261-0.608-0.261
			c-0.981,0-2.804,0.087-3.497,0.087s-2.514-0.087-4.046-0.087c-0.435,0-0.636,0.06-0.636,0.261c0,0.203,0.174,0.26,0.492,0.26
			c0.404,0,0.896,0.029,1.126,0.087c0.954,0.202,1.186,0.666,1.243,1.646c0.059,0.927,0.059,1.735,0.059,6.128v5.087
			c0,2.66,0,4.942-0.146,6.156c-0.115,0.839-0.26,1.475-0.838,1.59c-0.261,0.058-0.606,0.115-1.04,0.115
			c-0.347,0-0.462,0.088-0.462,0.231c0,0.203,0.201,0.289,0.578,0.289c1.155,0,2.976-0.086,3.641-0.086
			c0.722,0,2.544,0.086,4.161,0.086c0.317,0,0.551-0.086,0.551-0.289c0-0.144-0.146-0.231-0.377-0.231
			c-0.375,0-1.011-0.058-1.415-0.115c-0.724-0.115-0.984-0.751-1.042-1.561c-0.086-1.243-0.086-3.525-0.086-6.186v-2.629h0.144
			l0.318,0.433c0.608,0.839,6.301,7.515,7.573,8.642c1.242,1.098,2.023,1.733,3.583,1.879c0.607,0.058,1.129,0.058,1.994,0.058
			h2.515c0.55,0,0.694-0.086,0.694-0.289c0-0.174-0.174-0.231-0.376-0.231c-0.347,0-0.926-0.087-1.791-0.434
			c-1.563-0.606-2.862-1.907-4.134-3.121c-1.128-1.068-6.792-7.169-7.834-8.526c0.984-1.04,5.349-5.375,6.244-6.242
			c1.243-1.215,2.226-1.821,3.121-2.168c0.55-0.201,1.271-0.318,1.676-0.318c0.291,0,0.435-0.057,0.435-0.26
			c0-0.201-0.203-0.261-0.492-0.261c-0.896,0-2.485,0.087-3.381,0.087c-0.78,0-2.371-0.087-2.977-0.087
			c-0.317,0-0.463,0.06-0.463,0.261c0,0.174,0.115,0.231,0.375,0.289c0.291,0.058,0.406,0.26,0.406,0.578
			c0,0.49-0.636,1.214-1.446,2.168c-0.838,0.982-5.057,5.288-6.041,6.357h-0.144V145.816z"/>
		<path fill="#FFFFFF" d="M308.832,159.69c7.341,0,11.967-5.231,11.967-11.851s-4.48-10.81-11.677-10.81
			c-8.67,0-11.937,6.388-11.937,11.329C297.186,153.476,300.538,159.69,308.832,159.69z M310.046,158.244
			c-5.55,0-8.873-4.769-8.873-10.779c0-7.198,3.787-9.048,7.111-9.048c4.739,0,8.468,4.018,8.468,10.493
			C316.752,157.263,312.069,158.244,310.046,158.244z"/>
		<path fill="#FFFFFF" d="M335.46,158.62c0.23,0.753,0.375,1.07,0.663,1.07c0.348,0,0.492-0.348,1.041-1.531
			c1.243-2.66,5.086-12.891,5.636-14.365h0.059l6.012,14.479c0.434,1.069,0.606,1.417,0.896,1.417c0.376,0,0.52-0.348,0.838-1.359
			c1.416-4.335,4.451-13.526,5.781-17.168c0.606-1.646,0.924-2.804,1.617-3.063c0.318-0.115,0.724-0.145,1.013-0.145
			c0.259,0,0.404-0.086,0.404-0.289c0-0.172-0.203-0.231-0.521-0.231c-0.954,0-2.195,0.087-2.398,0.087
			c-0.26,0-1.474-0.087-3.006-0.087c-0.433,0-0.666,0.06-0.666,0.261c0,0.174,0.203,0.26,0.493,0.26
			c1.127,0,1.387,0.404,1.387,0.868c0,0.403-0.088,1.011-0.289,1.676c-1.013,3.381-3.324,11.012-3.843,12.947h-0.088l-6.013-14.537
			c-0.375-0.925-0.52-1.357-0.837-1.357c-0.231,0-0.404,0.229-0.723,1.039l-5.606,15.059h-0.088
			c-0.521-1.618-3.207-10.376-3.699-12.283c-0.347-1.301-0.636-2.283-0.636-2.658c0-0.318,0.058-0.521,0.317-0.636
			c0.203-0.117,0.491-0.117,0.724-0.117c0.288,0,0.52-0.028,0.52-0.26c0-0.174-0.201-0.261-0.607-0.261
			c-1.677,0-2.948,0.087-3.209,0.087c-0.259,0-1.848-0.087-3.351-0.087c-0.406,0-0.636,0.06-0.636,0.261
			c0,0.231,0.172,0.26,0.463,0.26c0.259,0,0.837,0.058,1.155,0.261c0.404,0.289,0.722,0.982,1.069,2.051L335.46,158.62z"/>
		<path fill="#FFFFFF" d="M368.048,150.903c0,2.804,0,5.088-0.145,6.302c-0.087,0.837-0.261,1.329-0.839,1.444
			c-0.261,0.058-0.605,0.115-1.04,0.115c-0.347,0-0.462,0.088-0.462,0.231c0,0.203,0.201,0.289,0.578,0.289
			c1.155,0,2.977-0.086,3.643-0.086c0.778,0,2.601,0.086,4.508,0.086c0.317,0,0.548-0.086,0.548-0.289
			c0-0.144-0.144-0.231-0.462-0.231c-0.433,0-1.07-0.058-1.473-0.115c-0.869-0.115-1.07-0.636-1.156-1.417
			c-0.117-1.241-0.117-3.525-0.117-6.329v-5.087c0-4.393,0-5.201,0.06-6.128c0.058-1.011,0.287-1.501,1.068-1.646
			c0.347-0.058,0.578-0.087,0.866-0.087c0.29,0,0.463-0.057,0.463-0.289c0-0.172-0.23-0.231-0.607-0.231
			c-1.097,0-2.803,0.087-3.525,0.087c-0.838,0-2.659-0.087-3.757-0.087c-0.463,0-0.693,0.06-0.693,0.231
			c0,0.232,0.173,0.289,0.462,0.289c0.347,0,0.723,0.029,1.04,0.117c0.636,0.144,0.925,0.636,0.983,1.616
			c0.058,0.927,0.058,1.735,0.058,6.128V150.903z"/>
		<path fill="#FFFFFF" d="M385.883,150.903c0,2.66,0,4.942-0.146,6.156c-0.115,0.839-0.261,1.475-0.839,1.59
			c-0.26,0.058-0.605,0.115-1.04,0.115c-0.347,0-0.462,0.088-0.462,0.231c0,0.203,0.202,0.289,0.579,0.289
			c1.154,0,2.976-0.086,3.64-0.086c1.706,0,3.643,0.174,8.007,0.174c1.099,0,1.358,0,1.562-0.753
			c0.144-0.578,0.376-2.544,0.376-3.207c0-0.291,0-0.521-0.232-0.521c-0.202,0-0.26,0.115-0.319,0.433
			c-0.201,1.186-0.548,1.792-1.299,2.139c-0.752,0.347-1.966,0.347-2.718,0.347c-2.947,0-3.409-0.433-3.467-2.428
			c-0.03-0.839,0-3.497,0-4.479v-2.284c0-0.172,0.027-0.287,0.173-0.287c0.693,0,3.554,0.027,4.104,0.086
			c1.069,0.116,1.474,0.55,1.617,1.128c0.088,0.375,0.088,0.751,0.116,1.04c0,0.144,0.058,0.26,0.261,0.26
			c0.259,0,0.259-0.318,0.259-0.549c0-0.203,0.059-1.359,0.116-1.938c0.087-1.473,0.231-1.935,0.231-2.108
			c0-0.175-0.087-0.232-0.202-0.232c-0.146,0-0.261,0.146-0.464,0.376c-0.259,0.289-0.693,0.375-1.386,0.433
			c-0.665,0.06-3.989,0.06-4.625,0.06c-0.174,0-0.201-0.117-0.201-0.318v-7.313c0-0.203,0.058-0.289,0.201-0.289
			c0.578,0,3.613,0.059,4.104,0.116c1.446,0.173,1.735,0.52,1.938,1.04c0.145,0.347,0.173,0.837,0.173,1.04
			c0,0.261,0.058,0.405,0.261,0.405c0.202,0,0.26-0.174,0.289-0.317c0.059-0.349,0.116-1.62,0.144-1.907
			c0.088-1.331,0.231-1.678,0.231-1.88c0-0.145-0.028-0.261-0.174-0.261c-0.143,0-0.316,0.088-0.46,0.116
			c-0.233,0.058-0.695,0.115-1.244,0.175c-0.549,0.027-6.301,0.027-7.226,0.027c-0.81,0-2.631-0.087-4.162-0.087
			c-0.434,0-0.636,0.06-0.636,0.261c0,0.203,0.174,0.26,0.491,0.26c0.404,0,0.896,0.029,1.127,0.087
			c0.953,0.202,1.187,0.666,1.244,1.646c0.058,0.927,0.058,1.735,0.058,6.128V150.903z"/>
	</g>
	<g>
		<path fill="#FFFFFF" d="M141.381,116.195c0,5.665,0.029,8.556-2.167,10.781c-0.578,0.578-1.012,0.896-1.387,1.099
			c-0.492,0.261-0.637,0.375-0.637,0.521c0,0.144,0.116,0.23,0.231,0.23c0.145,0,0.375-0.058,0.579-0.173
			c0.607-0.29,1.069-0.521,1.445-0.752c2.774-1.706,4.306-3.7,4.913-5.463c0.579-1.618,0.693-3.468,0.693-5.115
			c0-1.445-0.086-2.832-0.086-4.076V107.9c0-4.393,0-5.201,0.057-6.127c0.059-1.012,0.289-1.502,1.07-1.647
			c0.347-0.058,0.521-0.086,0.838-0.086c0.347,0,0.52-0.059,0.52-0.261c0-0.201-0.202-0.26-0.607-0.26
			c-1.127,0-2.948,0.086-3.642,0.086c-0.751,0-2.572-0.086-4.104-0.086c-0.434,0-0.636,0.059-0.636,0.26
			c0,0.202,0.173,0.261,0.491,0.261c0.405,0,0.896,0.028,1.127,0.086c0.954,0.203,1.185,0.665,1.243,1.647
			c0.058,0.926,0.058,1.734,0.058,6.127V116.195z"/>
		<path fill="#FFFFFF" d="M164.037,113.825c0.145,0,0.232,0.058,0.289,0.203l2.313,6.127c0.145,0.347-0.058,0.607-0.26,0.665
			c-0.289,0.028-0.405,0.086-0.405,0.26c0,0.202,0.347,0.202,0.867,0.231c2.312,0.058,4.421,0.058,5.462,0.058
			c1.069,0,1.33-0.058,1.33-0.289c0-0.201-0.145-0.231-0.376-0.231c-0.347,0-0.78-0.028-1.214-0.115
			c-0.607-0.145-1.445-0.549-2.543-3.151c-1.85-4.393-6.474-16.185-7.168-17.773c-0.289-0.665-0.462-0.925-0.722-0.925
			c-0.289,0-0.462,0.317-0.81,1.156l-7.254,18.15c-0.578,1.444-1.127,2.428-2.457,2.601c-0.231,0.029-0.636,0.058-0.896,0.058
			c-0.232,0-0.348,0.058-0.348,0.231c0,0.231,0.174,0.289,0.55,0.289c1.503,0,3.092-0.087,3.41-0.087
			c0.896,0,2.139,0.087,3.064,0.087c0.318,0,0.491-0.058,0.491-0.289c0-0.174-0.087-0.231-0.434-0.231h-0.434
			c-0.896,0-1.156-0.375-1.156-0.896c0-0.347,0.145-1.04,0.434-1.763l1.561-4.134c0.057-0.174,0.116-0.231,0.26-0.231H164.037z
			 M158.17,112.381c-0.115,0-0.145-0.088-0.115-0.202l2.659-7.11c0.029-0.116,0.086-0.26,0.173-0.26c0.086,0,0.116,0.144,0.145,0.26
			l2.602,7.139c0.028,0.086,0,0.174-0.145,0.174H158.17z"/>
		<path fill="#FFFFFF" d="M197.253,116.253c0-1.444,0-2.601,0.029-3.468c0.029-1.011,0.318-1.503,1.098-1.648
			c0.347-0.058,0.549-0.085,0.78-0.085c0.202,0,0.375-0.059,0.375-0.232c0-0.23-0.202-0.288-0.578-0.288
			c-0.954,0-2.485,0.087-3.381,0.087c-0.868,0-2.688-0.087-4.191-0.087c-0.404,0-0.606,0.058-0.606,0.288
			c0,0.174,0.173,0.232,0.433,0.232c0.405,0,0.896,0.027,1.127,0.085c0.954,0.203,1.213,0.666,1.243,1.648
			c0.029,0.867,0.029,1.967,0.029,3.41v2.718c0,0.491-0.116,0.867-0.549,1.069c-0.693,0.318-1.705,0.318-2.457,0.318
			c-6.098,0-10.058-4.653-10.058-10.868c0-3.555,1.041-5.722,2.66-7.081c2.022-1.676,4.132-1.792,5.722-1.792
			c3.267,0,5.579,1.329,6.445,2.255c0.751,0.809,0.896,1.734,0.983,2.397c0.029,0.233,0.086,0.377,0.289,0.377
			c0.231,0,0.318-0.144,0.318-0.606c0-3.613,0.202-4.423,0.202-4.741c0-0.201-0.059-0.317-0.405-0.345
			c-0.665-0.03-1.677-0.203-2.284-0.318c-0.578-0.116-3.121-0.463-5.116-0.463c-2.427,0-5,0.202-7.774,1.878
			c-2.63,1.59-5.029,4.827-5.029,9.45c0,7.978,6.272,11.33,13.353,11.33c2.254,0,5.086-0.317,6.965-1.3
			c0.347-0.203,0.375-0.261,0.375-1.042V116.253z"/>
		<path fill="#FFFFFF" d="M208.363,112.988c0,2.803,0,5.087-0.145,6.3c-0.087,0.839-0.26,1.33-0.838,1.445
			c-0.26,0.058-0.607,0.115-1.04,0.115c-0.348,0-0.462,0.088-0.462,0.231c0,0.202,0.202,0.289,0.577,0.289
			c1.157,0,2.978-0.087,3.642-0.087c0.781,0,2.601,0.087,4.508,0.087c0.318,0,0.551-0.087,0.551-0.289
			c0-0.144-0.146-0.231-0.463-0.231c-0.433,0-1.068-0.058-1.475-0.115c-0.866-0.115-1.068-0.636-1.156-1.416
			c-0.115-1.242-0.115-3.526-0.115-6.329V107.9c0-4.393,0-5.201,0.058-6.127c0.058-1.012,0.289-1.502,1.069-1.647
			c0.348-0.058,0.578-0.086,0.868-0.086c0.288,0,0.462-0.059,0.462-0.289c0-0.173-0.231-0.231-0.607-0.231
			c-1.099,0-2.803,0.086-3.525,0.086c-0.838,0-2.659-0.086-3.757-0.086c-0.462,0-0.694,0.059-0.694,0.231
			c0,0.23,0.173,0.289,0.462,0.289c0.348,0,0.723,0.028,1.041,0.115c0.636,0.144,0.925,0.636,0.982,1.618
			c0.058,0.926,0.058,1.734,0.058,6.127V112.988z"/>
		<path fill="#FFFFFF" d="M224.463,112.988c0,2.659,0,4.942-0.144,6.156c-0.116,0.838-0.261,1.474-0.839,1.589
			c-0.26,0.058-0.606,0.115-1.041,0.115c-0.346,0-0.462,0.088-0.462,0.231c0,0.202,0.201,0.289,0.578,0.289
			c1.155,0,2.978-0.087,3.641-0.087c1.706,0,3.642,0.174,8.008,0.174c1.097,0,1.357,0,1.559-0.751
			c0.146-0.578,0.377-2.545,0.377-3.208c0-0.29,0-0.521-0.231-0.521c-0.203,0-0.261,0.115-0.318,0.433
			c-0.202,1.186-0.548,1.793-1.3,2.14s-1.966,0.347-2.717,0.347c-2.949,0-3.411-0.434-3.468-2.429c-0.029-0.838,0-3.496,0-4.479
			v-2.284c0-0.173,0.028-0.288,0.174-0.288c0.693,0,3.554,0.027,4.102,0.085c1.07,0.117,1.475,0.551,1.62,1.129
			c0.086,0.376,0.086,0.751,0.115,1.039c0,0.146,0.058,0.26,0.26,0.26c0.261,0,0.261-0.317,0.261-0.548
			c0-0.202,0.058-1.359,0.115-1.938c0.088-1.474,0.231-1.936,0.231-2.109c0-0.173-0.087-0.23-0.201-0.23
			c-0.146,0-0.261,0.146-0.464,0.375c-0.26,0.289-0.693,0.376-1.387,0.434c-0.665,0.058-3.989,0.058-4.625,0.058
			c-0.173,0-0.201-0.115-0.201-0.318v-7.312c0-0.202,0.057-0.289,0.201-0.289c0.578,0,3.613,0.058,4.104,0.117
			c1.444,0.172,1.735,0.519,1.937,1.04c0.144,0.346,0.174,0.837,0.174,1.039c0,0.261,0.058,0.406,0.261,0.406
			c0.201,0,0.26-0.174,0.287-0.318c0.058-0.348,0.117-1.619,0.146-1.908c0.086-1.329,0.23-1.676,0.23-1.879
			c0-0.146-0.027-0.26-0.173-0.26s-0.318,0.087-0.463,0.114c-0.23,0.06-0.693,0.117-1.241,0.176
			c-0.551,0.027-6.302,0.027-7.227,0.027c-0.809,0-2.631-0.086-4.163-0.086c-0.433,0-0.636,0.059-0.636,0.26
			c0,0.202,0.174,0.261,0.492,0.261c0.404,0,0.896,0.028,1.128,0.086c0.953,0.203,1.184,0.665,1.242,1.647
			c0.058,0.926,0.058,1.734,0.058,6.127V112.988z"/>
		<path fill="#FFFFFF" d="M249.383,107.9c0-4.393,0-5.201,0.058-6.127c0.058-1.012,0.287-1.502,1.068-1.647
			c0.348-0.058,0.81-0.086,1.128-0.086c0.347,0,0.519-0.059,0.519-0.261c0-0.201-0.201-0.26-0.605-0.26
			c-1.127,0-3.237,0.086-3.931,0.086c-0.779,0-2.602-0.086-3.96-0.086c-0.435,0-0.636,0.059-0.636,0.26
			c0,0.202,0.174,0.261,0.492,0.261c0.375,0,0.722,0.028,0.953,0.086c0.954,0.203,1.185,0.665,1.241,1.647
			c0.06,0.926,0.06,1.734,0.06,6.127v5.088c0,2.659,0,4.942-0.145,6.156c-0.116,0.838-0.26,1.474-0.838,1.589
			c-0.261,0.058-0.608,0.115-1.042,0.115c-0.347,0-0.461,0.088-0.461,0.231c0,0.202,0.201,0.289,0.578,0.289
			c1.155,0,2.978-0.087,3.641-0.087c2.342,0,4.25,0.174,8.411,0.174c1.503,0,1.647-0.145,1.821-0.78
			c0.229-0.838,0.433-3.006,0.433-3.323c0-0.347-0.028-0.491-0.23-0.491c-0.232,0-0.29,0.173-0.317,0.434
			c-0.059,0.548-0.405,1.357-0.752,1.734c-0.723,0.779-1.851,0.809-3.382,0.809c-2.254,0-3.006-0.203-3.498-0.636
			c-0.605-0.521-0.605-2.516-0.605-6.214V107.9z"/>
		<path fill="#FFFFFF" d="M269.91,107.9c0-4.393,0-5.201,0.06-6.127c0.058-1.012,0.289-1.502,1.068-1.647
			c0.347-0.058,0.81-0.086,1.128-0.086c0.347,0,0.521-0.059,0.521-0.261c0-0.201-0.203-0.26-0.608-0.26
			c-1.126,0-3.236,0.086-3.93,0.086c-0.781,0-2.601-0.086-3.96-0.086c-0.433,0-0.636,0.059-0.636,0.26
			c0,0.202,0.173,0.261,0.49,0.261c0.376,0,0.724,0.028,0.954,0.086c0.954,0.203,1.187,0.665,1.244,1.647
			c0.058,0.926,0.058,1.734,0.058,6.127v5.088c0,2.659,0,4.942-0.146,6.156c-0.115,0.838-0.26,1.474-0.839,1.589
			c-0.259,0.058-0.605,0.115-1.039,0.115c-0.347,0-0.462,0.088-0.462,0.231c0,0.202,0.202,0.289,0.578,0.289
			c1.156,0,2.976-0.087,3.642-0.087c2.341,0,4.248,0.174,8.41,0.174c1.502,0,1.647-0.145,1.819-0.78
			c0.233-0.838,0.435-3.006,0.435-3.323c0-0.347-0.028-0.491-0.231-0.491c-0.23,0-0.288,0.173-0.317,0.434
			c-0.058,0.548-0.404,1.357-0.751,1.734c-0.724,0.779-1.85,0.809-3.382,0.809c-2.256,0-3.006-0.203-3.497-0.636
			c-0.608-0.521-0.608-2.516-0.608-6.214V107.9z"/>
		<path fill="#FFFFFF" d="M295.324,121.773c7.342,0,11.966-5.231,11.966-11.849c0-6.62-4.479-10.81-11.677-10.81
			c-8.67,0-11.936,6.388-11.936,11.328C283.678,115.56,287.029,121.773,295.324,121.773z M296.539,120.328
			c-5.55,0-8.874-4.769-8.874-10.78c0-7.196,3.787-9.046,7.111-9.046c4.739,0,8.468,4.017,8.468,10.491
			C303.244,119.347,298.561,120.328,296.539,120.328z"/>
		<path fill="#FFFFFF" d="M329.264,93.19c-0.145-0.261-0.202-0.348-0.405-0.348c-0.085,0-0.288,0.058-0.577,0.26
			c-0.462,0.289-3.498,2.543-4.654,3.642c-0.144,0.146-0.259,0.261-0.259,0.376s0.115,0.174,0.174,0.174
			c0.058,0,0.259-0.116,0.49-0.231c1.069-0.578,3.354-1.503,4.942-1.704c0.578-0.058,0.837,0,0.982,0s0.318-0.088,0.146-0.435
			C329.755,94.144,329.495,93.595,329.264,93.19z M317.963,105.3h0.088c0.521,0.548,3.727,4.163,6.878,7.284
			c3.006,2.976,6.706,6.763,8.525,8.496c0.317,0.318,0.666,0.636,0.983,0.636c0.261,0,0.376-0.26,0.376-0.896l0.317-18.237
			c0.029-1.618,0.261-2.226,1.069-2.457c0.348-0.086,0.578-0.086,0.868-0.086c0.346,0,0.52-0.087,0.52-0.261
			c0-0.231-0.289-0.26-0.665-0.26c-1.416,0-2.516,0.086-2.833,0.086c-0.605,0-1.994-0.086-3.497-0.086
			c-0.433,0-0.751,0.028-0.751,0.26c0,0.174,0.115,0.261,0.464,0.261c0.402,0,1.097,0,1.531,0.174
			c0.693,0.288,0.954,0.837,0.981,2.601l0.29,12.977h-0.145c-0.491-0.461-4.394-4.624-6.358-6.589
			c-4.22-4.191-8.612-8.903-8.961-9.278c-0.49-0.521-0.751-0.896-1.068-0.896c-0.289,0-0.376,0.405-0.376,0.983l-0.26,17.109
			c-0.03,2.515-0.146,3.354-0.896,3.585c-0.405,0.115-0.925,0.144-1.302,0.144c-0.287,0-0.461,0.058-0.461,0.231
			c0,0.261,0.26,0.289,0.636,0.289c1.503,0,2.862-0.087,3.122-0.087c0.548,0,1.705,0.087,3.583,0.087
			c0.404,0,0.665-0.058,0.665-0.289c0-0.174-0.173-0.231-0.491-0.231c-0.463,0-1.013-0.028-1.504-0.202
			c-0.577-0.202-0.954-0.954-1.012-3.208L317.963,105.3z"/>
		<path fill="#FFFFFF" d="M349.707,121.773c1.532,0,3.148-0.259,4.596-1.185c2.08-1.358,2.716-3.352,2.716-5.029
			c0-2.745-1.271-4.682-4.739-7.37l-0.811-0.606c-2.397-1.82-3.063-2.832-3.063-4.163c0-1.733,1.302-2.976,3.439-2.976
			c1.88,0,2.717,0.867,3.151,1.417c0.605,0.75,0.751,1.646,0.751,1.907c0,0.347,0.087,0.521,0.289,0.521
			c0.231,0,0.317-0.231,0.317-0.869c0-2.252,0.116-3.091,0.116-3.467c0-0.202-0.145-0.29-0.405-0.348
			c-0.751-0.203-1.965-0.49-3.845-0.49c-4.018,0-6.676,2.282-6.676,5.461c0,2.342,1.1,4.366,4.278,6.852l1.329,1.04
			c2.399,1.85,2.833,3.207,2.833,4.624c0,1.532-1.272,3.294-3.873,3.294c-1.792,0-3.498-0.779-4.134-2.919
			c-0.144-0.49-0.261-1.099-0.261-1.474c0-0.23-0.027-0.491-0.287-0.491c-0.232,0-0.318,0.318-0.349,0.751
			c-0.027,0.464-0.144,2.198-0.144,3.787c0,0.636,0.086,0.78,0.55,0.982C346.729,121.572,348.03,121.773,349.707,121.773z"/>
		<path fill="#FFFFFF" d="M370.458,107.9c0-4.393,0-5.201,0.06-6.127c0.058-1.012,0.287-1.502,1.068-1.647
			c0.347-0.058,0.521-0.086,0.809-0.086c0.231,0,0.405-0.059,0.405-0.261c0-0.201-0.202-0.26-0.606-0.26
			c-0.982,0-2.804,0.086-3.498,0.086c-0.693,0-2.514-0.086-4.045-0.086c-0.435,0-0.636,0.059-0.636,0.26
			c0,0.202,0.173,0.261,0.49,0.261c0.404,0,0.896,0.028,1.126,0.086c0.954,0.203,1.187,0.665,1.244,1.647
			c0.058,0.926,0.058,1.734,0.058,6.127v5.088c0,2.659,0,4.942-0.145,6.156c-0.115,0.838-0.261,1.474-0.839,1.589
			c-0.259,0.058-0.605,0.115-1.04,0.115c-0.347,0-0.462,0.088-0.462,0.231c0,0.202,0.203,0.289,0.578,0.289
			c1.156,0,2.977-0.087,3.643-0.087c0.722,0,2.543,0.087,4.161,0.087c0.317,0,0.549-0.087,0.549-0.289
			c0-0.144-0.145-0.231-0.375-0.231c-0.377,0-1.013-0.058-1.417-0.115c-0.724-0.115-0.983-0.751-1.041-1.561
			c-0.087-1.242-0.087-3.525-0.087-6.185v-2.63h0.145l0.317,0.434c0.608,0.838,6.302,7.514,7.574,8.64
			c1.242,1.1,2.022,1.735,3.583,1.88c0.607,0.058,1.128,0.058,1.994,0.058h2.516c0.548,0,0.693-0.087,0.693-0.289
			c0-0.174-0.174-0.231-0.376-0.231c-0.348,0-0.926-0.086-1.792-0.433c-1.561-0.607-2.86-1.907-4.133-3.121
			c-1.129-1.07-6.793-7.169-7.833-8.527c0.982-1.04,5.348-5.375,6.242-6.242c1.243-1.214,2.227-1.821,3.123-2.168
			c0.548-0.202,1.271-0.317,1.676-0.317c0.289,0,0.433-0.059,0.433-0.261c0-0.201-0.201-0.26-0.491-0.26
			c-0.896,0-2.485,0.086-3.382,0.086c-0.779,0-2.369-0.086-2.976-0.086c-0.318,0-0.464,0.059-0.464,0.26
			c0,0.174,0.117,0.231,0.376,0.289c0.29,0.058,0.405,0.261,0.405,0.578c0,0.491-0.636,1.215-1.445,2.168
			c-0.837,0.982-5.058,5.289-6.041,6.357h-0.145V107.9z"/>
		<path fill="#FFFFFF" d="M392.169,112.988c0,2.803,0,5.087-0.146,6.3c-0.086,0.839-0.26,1.33-0.839,1.445
			c-0.259,0.058-0.605,0.115-1.038,0.115c-0.348,0-0.463,0.088-0.463,0.231c0,0.202,0.202,0.289,0.578,0.289
			c1.156,0,2.976-0.087,3.642-0.087c0.78,0,2.601,0.087,4.508,0.087c0.318,0,0.55-0.087,0.55-0.289c0-0.144-0.144-0.231-0.462-0.231
			c-0.435,0-1.07-0.058-1.475-0.115c-0.867-0.115-1.069-0.636-1.156-1.416c-0.115-1.242-0.115-3.526-0.115-6.329V107.9
			c0-4.393,0-5.201,0.058-6.127c0.058-1.012,0.288-1.502,1.069-1.647c0.347-0.058,0.578-0.086,0.867-0.086s0.462-0.059,0.462-0.289
			c0-0.173-0.23-0.231-0.606-0.231c-1.099,0-2.803,0.086-3.526,0.086c-0.839,0-2.658-0.086-3.757-0.086
			c-0.464,0-0.693,0.059-0.693,0.231c0,0.23,0.173,0.289,0.462,0.289c0.347,0,0.722,0.028,1.04,0.115
			c0.636,0.144,0.926,0.636,0.983,1.618c0.058,0.926,0.058,1.734,0.058,6.127V112.988z"/>
	</g>
	<g>
		<path fill="#FFFFFF" d="M140.852,74.205c0,4.191,1.098,6.33,2.572,7.659c2.109,1.908,4.884,1.994,6.416,1.994
			c1.878,0,3.96-0.318,6.012-2.081c2.428-2.081,2.746-5.492,2.746-8.7v-3.093c0-4.393,0-5.203,0.059-6.127
			c0.058-1.011,0.288-1.502,1.069-1.647c0.347-0.058,0.52-0.087,0.838-0.087c0.347,0,0.52-0.058,0.52-0.26
			c0-0.203-0.202-0.26-0.607-0.26c-1.127,0-2.948,0.086-3.295,0.086c-0.029,0-1.85-0.086-3.324-0.086
			c-0.404,0-0.607,0.058-0.607,0.26c0,0.202,0.174,0.26,0.492,0.26s0.809,0.029,1.04,0.087c0.954,0.202,1.185,0.665,1.243,1.647
			c0.058,0.925,0.058,1.735,0.058,6.127v3.613c0,2.977-0.087,5.578-1.676,7.167c-1.156,1.156-2.717,1.561-3.989,1.561
			c-0.982,0-2.312-0.116-3.612-1.185c-1.416-1.156-2.255-2.918-2.255-7.11v-4.046c0-4.393,0-5.203,0.058-6.127
			c0.059-1.011,0.289-1.502,1.07-1.647c0.347-0.058,0.521-0.087,0.838-0.087c0.289,0,0.462-0.058,0.462-0.26
			c0-0.203-0.202-0.26-0.636-0.26c-1.041,0-2.862,0.086-3.555,0.086c-0.867,0-2.688-0.086-4.22-0.086
			c-0.434,0-0.636,0.058-0.636,0.26c0,0.202,0.173,0.26,0.491,0.26c0.405,0,0.896,0.029,1.128,0.087
			c0.954,0.202,1.185,0.665,1.243,1.647c0.058,0.925,0.058,1.735,0.058,6.127V74.205z"/>
		<path fill="#FFFFFF" d="M171.061,67.384h0.086c0.521,0.549,3.729,4.162,6.879,7.284c3.006,2.977,6.706,6.763,8.526,8.497
			c0.318,0.318,0.665,0.636,0.983,0.636c0.26,0,0.375-0.261,0.375-0.896l0.318-18.237c0.029-1.619,0.26-2.226,1.069-2.457
			c0.347-0.087,0.578-0.087,0.867-0.087c0.347,0,0.52-0.086,0.52-0.26c0-0.231-0.289-0.26-0.665-0.26
			c-1.416,0-2.514,0.086-2.832,0.086c-0.607,0-1.994-0.086-3.498-0.086c-0.434,0-0.751,0.029-0.751,0.26
			c0,0.173,0.116,0.26,0.462,0.26c0.405,0,1.098,0,1.532,0.173c0.693,0.289,0.954,0.839,0.982,2.602l0.289,12.977h-0.145
			c-0.491-0.462-4.393-4.624-6.358-6.589c-4.22-4.191-8.613-8.902-8.959-9.278c-0.491-0.52-0.752-0.896-1.07-0.896
			c-0.289,0-0.375,0.404-0.375,0.982l-0.261,17.11c-0.029,2.514-0.145,3.353-0.896,3.583c-0.405,0.116-0.925,0.145-1.3,0.145
			c-0.289,0-0.462,0.058-0.462,0.231c0,0.26,0.26,0.29,0.636,0.29c1.503,0,2.861-0.087,3.121-0.087c0.55,0,1.706,0.087,3.584,0.087
			c0.405,0,0.665-0.059,0.665-0.29c0-0.174-0.174-0.231-0.492-0.231c-0.462,0-1.011-0.029-1.502-0.202
			c-0.578-0.202-0.955-0.954-1.012-3.208L171.061,67.384z"/>
		<path fill="#FFFFFF" d="M200.173,75.072c0,2.803,0,5.087-0.145,6.301c-0.086,0.838-0.26,1.33-0.838,1.445
			c-0.26,0.058-0.607,0.116-1.041,0.116c-0.347,0-0.463,0.087-0.463,0.231c0,0.202,0.202,0.29,0.579,0.29
			c1.156,0,2.977-0.087,3.641-0.087c0.781,0,2.601,0.087,4.509,0.087c0.318,0,0.549-0.087,0.549-0.29
			c0-0.145-0.145-0.231-0.462-0.231c-0.433,0-1.07-0.058-1.474-0.116c-0.868-0.115-1.07-0.636-1.157-1.416
			c-0.115-1.243-0.115-3.526-0.115-6.33v-5.087c0-4.393,0-5.203,0.057-6.127c0.058-1.011,0.29-1.502,1.07-1.647
			c0.347-0.058,0.578-0.087,0.867-0.087c0.289,0,0.462-0.058,0.462-0.289c0-0.173-0.231-0.231-0.606-0.231
			c-1.099,0-2.804,0.086-3.526,0.086c-0.838,0-2.659-0.086-3.758-0.086c-0.462,0-0.693,0.058-0.693,0.231
			c0,0.231,0.173,0.289,0.462,0.289c0.347,0,0.722,0.029,1.04,0.116c0.636,0.145,0.925,0.636,0.983,1.618
			c0.058,0.925,0.058,1.735,0.058,6.127V75.072z"/>
		<path fill="#FFFFFF" d="M219.829,82.789c0.231,0.751,0.375,1.069,0.665,1.069c0.346,0,0.49-0.347,1.039-1.532
			c1.243-2.659,5.088-12.89,5.636-14.364h0.06l6.011,14.48c0.433,1.069,0.606,1.416,0.896,1.416c0.376,0,0.521-0.347,0.839-1.358
			c1.417-4.335,4.45-13.526,5.779-17.167c0.608-1.648,0.927-2.804,1.62-3.064c0.317-0.116,0.722-0.145,1.011-0.145
			c0.261,0,0.405-0.086,0.405-0.289c0-0.173-0.202-0.231-0.521-0.231c-0.953,0-2.197,0.086-2.399,0.086
			c-0.26,0-1.474-0.086-3.004-0.086c-0.435,0-0.666,0.058-0.666,0.26c0,0.173,0.202,0.26,0.49,0.26c1.129,0,1.388,0.405,1.388,0.867
			c0,0.404-0.086,1.011-0.289,1.677c-1.011,3.381-3.324,11.011-3.843,12.948h-0.087l-6.012-14.539
			c-0.376-0.925-0.521-1.358-0.839-1.358c-0.23,0-0.404,0.231-0.723,1.04l-5.607,15.059h-0.085
			c-0.521-1.619-3.209-10.376-3.7-12.284c-0.348-1.3-0.636-2.284-0.636-2.659c0-0.318,0.058-0.52,0.318-0.636
			c0.201-0.116,0.49-0.116,0.722-0.116c0.289,0,0.52-0.029,0.52-0.26c0-0.174-0.201-0.26-0.605-0.26
			c-1.677,0-2.948,0.086-3.209,0.086s-1.85-0.086-3.352-0.086c-0.405,0-0.637,0.058-0.637,0.26c0,0.231,0.174,0.26,0.462,0.26
			c0.26,0,0.838,0.058,1.156,0.26c0.405,0.289,0.724,0.982,1.07,2.052L219.829,82.789z"/>
		<path fill="#FFFFFF" d="M250.685,75.072c0,2.659,0,4.942-0.146,6.156c-0.115,0.838-0.261,1.474-0.839,1.589
			c-0.26,0.058-0.605,0.116-1.04,0.116c-0.347,0-0.462,0.087-0.462,0.231c0,0.202,0.202,0.29,0.579,0.29
			c1.154,0,2.976-0.087,3.64-0.087c1.706,0,3.643,0.173,8.007,0.173c1.099,0,1.358,0,1.561-0.751
			c0.144-0.578,0.377-2.543,0.377-3.208c0-0.289,0-0.52-0.233-0.52c-0.201,0-0.259,0.116-0.318,0.434
			c-0.201,1.185-0.548,1.792-1.299,2.139c-0.752,0.347-1.966,0.347-2.718,0.347c-2.947,0-3.409-0.434-3.467-2.428
			c-0.03-0.838,0-3.497,0-4.48v-2.283c0-0.173,0.027-0.289,0.173-0.289c0.693,0,3.554,0.029,4.104,0.087
			c1.07,0.116,1.475,0.549,1.618,1.127c0.088,0.376,0.088,0.751,0.116,1.041c0,0.145,0.058,0.26,0.259,0.26
			c0.261,0,0.261-0.318,0.261-0.549c0-0.202,0.058-1.358,0.116-1.936c0.087-1.474,0.231-1.937,0.231-2.11
			c0-0.173-0.087-0.23-0.202-0.23c-0.146,0-0.261,0.144-0.464,0.375c-0.26,0.289-0.693,0.375-1.386,0.434
			c-0.665,0.058-3.989,0.058-4.625,0.058c-0.174,0-0.201-0.116-0.201-0.318v-7.312c0-0.203,0.058-0.289,0.201-0.289
			c0.578,0,3.613,0.057,4.104,0.115c1.446,0.174,1.735,0.521,1.938,1.041c0.145,0.347,0.173,0.839,0.173,1.041
			c0,0.26,0.058,0.405,0.261,0.405c0.202,0,0.26-0.173,0.289-0.318c0.058-0.347,0.116-1.619,0.144-1.908
			c0.088-1.329,0.231-1.676,0.231-1.878c0-0.145-0.028-0.26-0.174-0.26c-0.144,0-0.318,0.087-0.462,0.116
			c-0.231,0.058-0.693,0.116-1.242,0.173c-0.549,0.029-6.301,0.029-7.227,0.029c-0.809,0-2.63-0.086-4.161-0.086
			c-0.435,0-0.636,0.058-0.636,0.26c0,0.202,0.174,0.26,0.491,0.26c0.404,0,0.896,0.029,1.127,0.087
			c0.953,0.202,1.185,0.665,1.242,1.647c0.06,0.925,0.06,1.735,0.06,6.127V75.072z"/>
		<path fill="#FFFFFF" d="M271.99,75.072c0,2.659,0,4.942-0.145,6.156c-0.115,0.838-0.261,1.474-0.839,1.589
			c-0.261,0.058-0.605,0.116-1.04,0.116c-0.347,0-0.462,0.087-0.462,0.231c0,0.202,0.201,0.29,0.578,0.29
			c1.155,0,2.977-0.087,3.524-0.087c0.435,0,2.573,0.087,4.25,0.087c0.376,0,0.578-0.087,0.578-0.29
			c0-0.145-0.116-0.231-0.348-0.231c-0.347,0-0.982-0.058-1.417-0.116c-0.866-0.115-1.038-0.751-1.126-1.589
			c-0.146-1.214-0.146-3.498-0.146-6.185v-0.405c0-0.173,0.088-0.231,0.233-0.231l2.513,0.058c0.202,0,0.375,0.029,0.521,0.203
			c0.375,0.433,1.704,2.398,2.861,3.988c1.619,2.226,2.717,3.584,3.959,4.249c0.751,0.405,1.475,0.55,3.094,0.55h2.745
			c0.347,0,0.549-0.059,0.549-0.29c0-0.145-0.114-0.231-0.347-0.231c-0.231,0-0.491-0.029-0.81-0.086
			c-0.433-0.087-1.618-0.289-3.236-1.965c-1.706-1.792-3.699-4.365-6.272-7.601c2.92-2.371,3.816-4.336,3.816-6.474
			c0-1.937-1.157-3.411-1.967-3.96c-1.561-1.069-3.496-1.243-5.317-1.243c-0.896,0-3.093,0.086-4.075,0.086
			c-0.606,0-2.428-0.086-3.96-0.086c-0.434,0-0.636,0.058-0.636,0.26c0,0.202,0.174,0.26,0.492,0.26
			c0.404,0,0.896,0.029,1.126,0.087c0.954,0.202,1.186,0.665,1.243,1.647c0.059,0.925,0.059,1.735,0.059,6.127V75.072z
			 M275.399,63.482c0-0.231,0.059-0.346,0.261-0.405c0.29-0.086,0.81-0.116,1.531-0.116c1.706,0,4.423,1.185,4.423,5.29
			c0,2.37-0.838,3.7-1.705,4.335c-0.52,0.375-0.896,0.491-2.052,0.491c-0.724,0-1.589-0.086-2.197-0.289
			c-0.202-0.086-0.261-0.202-0.261-0.52V63.482z"/>
		<path fill="#FFFFFF" d="M299.484,83.858c1.532,0,3.15-0.26,4.596-1.185c2.08-1.358,2.716-3.352,2.716-5.028
			c0-2.746-1.271-4.683-4.738-7.371l-0.812-0.607c-2.397-1.821-3.063-2.832-3.063-4.162c0-1.734,1.302-2.977,3.44-2.977
			c1.879,0,2.718,0.867,3.15,1.417c0.606,0.751,0.751,1.647,0.751,1.907c0,0.347,0.088,0.521,0.29,0.521
			c0.23,0,0.318-0.231,0.318-0.867c0-2.255,0.115-3.093,0.115-3.468c0-0.203-0.146-0.289-0.406-0.347
			c-0.751-0.202-1.965-0.491-3.843-0.491c-4.018,0-6.677,2.283-6.677,5.463c0,2.341,1.099,4.364,4.277,6.85l1.329,1.041
			c2.4,1.85,2.833,3.208,2.833,4.625c0,1.532-1.271,3.294-3.873,3.294c-1.791,0-3.497-0.78-4.133-2.919
			c-0.144-0.491-0.26-1.098-0.26-1.474c0-0.231-0.029-0.492-0.289-0.492c-0.23,0-0.318,0.319-0.347,0.752
			c-0.029,0.462-0.145,2.197-0.145,3.786c0,0.636,0.085,0.78,0.549,0.982C296.509,83.656,297.808,83.858,299.484,83.858z"/>
		<path fill="#FFFFFF" d="M319.948,78.338c0,0.462,0,1.676-0.087,2.89c-0.057,0.838-0.317,1.474-0.896,1.589
			c-0.261,0.058-0.608,0.116-1.013,0.116c-0.318,0-0.462,0.087-0.462,0.231c0,0.231,0.23,0.29,0.636,0.29
			c1.069,0,2.89-0.087,3.612-0.087c0.78,0,2.602,0.087,4.423,0.087c0.375,0,0.606-0.087,0.606-0.29c0-0.145-0.144-0.231-0.462-0.231
			c-0.405,0-1.041-0.058-1.446-0.116c-0.866-0.115-1.126-0.751-1.184-1.589c-0.088-1.214-0.088-2.428-0.088-2.89v-2.37
			c0-0.954,0-1.85,0.435-2.89c0.519-1.243,4.566-8.035,5.52-9.19c0.637-0.781,0.954-1.128,1.562-1.416
			c0.434-0.232,0.982-0.348,1.271-0.348c0.317,0,0.549-0.086,0.549-0.289c0-0.173-0.202-0.231-0.521-0.231
			c-0.548,0-2.457,0.086-3.093,0.086c-0.837,0-1.763-0.086-2.717-0.086c-0.347,0-0.49,0.058-0.49,0.26
			c0,0.173,0.26,0.231,0.521,0.289c0.49,0.116,0.605,0.434,0.605,0.723c0,0.375-0.115,0.868-0.404,1.503
			c-0.404,0.896-4.046,7.254-4.335,7.948c-0.462-0.809-4.51-7.774-4.913-8.642c-0.202-0.404-0.347-0.751-0.347-0.982
			c0-0.23,0.145-0.462,0.403-0.52c0.435-0.116,0.638-0.145,0.638-0.318c0-0.174-0.146-0.26-0.435-0.26
			c-1.3,0-2.485,0.086-3.093,0.086c-0.953,0-3.121-0.086-3.642-0.086c-0.347,0-0.548,0.086-0.548,0.26
			c0,0.202,0.201,0.26,0.433,0.26c0.347,0,0.839,0.173,1.214,0.376c0.549,0.318,1.271,1.04,1.994,2.11
			c1.013,1.503,4.885,7.861,5.087,8.324c0.376,0.838,0.665,1.474,0.665,3.035V78.338z"/>
		<path fill="#FFFFFF" d="M342.963,75.072c0,2.659,0,4.942-0.146,6.156c-0.087,0.838-0.26,1.474-0.838,1.589
			c-0.261,0.058-0.607,0.116-1.04,0.116c-0.347,0-0.462,0.087-0.462,0.231c0,0.202,0.201,0.29,0.577,0.29
			c1.156,0,2.977-0.087,3.642-0.087c0.81,0,2.629,0.087,4.536,0.087c0.318,0,0.552-0.087,0.552-0.29
			c0-0.145-0.146-0.231-0.464-0.231c-0.433,0-1.068-0.058-1.474-0.116c-0.866-0.115-1.04-0.751-1.127-1.561
			c-0.145-1.243-0.145-3.526-0.145-6.185v-11.85l3.642,0.087c2.573,0.058,3.353,0.867,3.41,1.619l0.029,0.318
			c0.028,0.434,0.087,0.578,0.317,0.578c0.173,0,0.231-0.173,0.261-0.462c0-0.751,0.086-2.746,0.086-3.353
			c0-0.433-0.028-0.607-0.231-0.607c-0.23,0-0.924,0.289-2.773,0.289h-11.446c-0.954,0-2.053-0.058-2.89-0.145
			c-0.722-0.058-1.013-0.347-1.243-0.347c-0.172,0-0.26,0.173-0.347,0.549c-0.059,0.231-0.606,2.861-0.606,3.324
			c0,0.318,0.058,0.462,0.26,0.462c0.173,0,0.261-0.115,0.318-0.347c0.058-0.231,0.203-0.578,0.49-1.012
			c0.434-0.636,1.128-0.78,2.804-0.838l4.308-0.116V75.072z"/>
		<path fill="#FFFFFF" d="M362.683,75.072c0,2.659,0,4.942-0.144,6.156c-0.117,0.838-0.261,1.474-0.838,1.589
			c-0.26,0.058-0.608,0.116-1.041,0.116c-0.347,0-0.463,0.087-0.463,0.231c0,0.202,0.202,0.29,0.578,0.29
			c1.156,0,2.978-0.087,3.642-0.087c1.705,0,3.643,0.173,8.006,0.173c1.1,0,1.358,0,1.561-0.751
			c0.146-0.578,0.376-2.543,0.376-3.208c0-0.289,0-0.52-0.23-0.52c-0.203,0-0.26,0.116-0.317,0.434
			c-0.203,1.185-0.55,1.792-1.302,2.139c-0.751,0.347-1.965,0.347-2.716,0.347c-2.949,0-3.412-0.434-3.47-2.428
			c-0.028-0.838,0-3.497,0-4.48v-2.283c0-0.173,0.03-0.289,0.174-0.289c0.693,0,3.556,0.029,4.104,0.087
			c1.068,0.116,1.474,0.549,1.619,1.127c0.086,0.376,0.086,0.751,0.115,1.041c0,0.145,0.058,0.26,0.261,0.26
			c0.26,0,0.26-0.318,0.26-0.549c0-0.202,0.058-1.358,0.115-1.936c0.086-1.474,0.23-1.937,0.23-2.11c0-0.173-0.085-0.23-0.202-0.23
			c-0.144,0-0.26,0.144-0.461,0.375c-0.261,0.289-0.693,0.375-1.389,0.434c-0.664,0.058-3.988,0.058-4.624,0.058
			c-0.173,0-0.203-0.116-0.203-0.318v-7.312c0-0.203,0.058-0.289,0.203-0.289c0.578,0,3.613,0.057,4.105,0.115
			c1.443,0.174,1.732,0.521,1.935,1.041c0.145,0.347,0.174,0.839,0.174,1.041c0,0.26,0.059,0.405,0.26,0.405
			c0.202,0,0.261-0.173,0.289-0.318c0.058-0.347,0.115-1.619,0.146-1.908c0.087-1.329,0.23-1.676,0.23-1.878
			c0-0.145-0.029-0.26-0.173-0.26c-0.146,0-0.317,0.087-0.463,0.116c-0.23,0.058-0.693,0.116-1.243,0.173
			c-0.549,0.029-6.301,0.029-7.225,0.029c-0.81,0-2.631-0.086-4.163-0.086c-0.433,0-0.636,0.058-0.636,0.26
			c0,0.202,0.173,0.26,0.491,0.26c0.405,0,0.896,0.029,1.129,0.087c0.953,0.202,1.184,0.665,1.241,1.647
			c0.058,0.925,0.058,1.735,0.058,6.127V75.072z"/>
		<path fill="#FFFFFF" d="M387.834,75.072c0,2.659,0,4.942-0.146,6.156c-0.087,0.838-0.261,1.474-0.837,1.589
			c-0.261,0.058-0.607,0.116-1.04,0.116c-0.349,0-0.464,0.087-0.464,0.231c0,0.202,0.203,0.29,0.579,0.29
			c1.156,0,2.976-0.087,3.642-0.087c0.809,0,2.629,0.087,4.538,0.087c0.317,0,0.548-0.087,0.548-0.29
			c0-0.145-0.146-0.231-0.463-0.231c-0.434,0-1.069-0.058-1.473-0.116c-0.868-0.115-1.04-0.751-1.128-1.561
			c-0.145-1.243-0.145-3.526-0.145-6.185v-11.85l3.641,0.087c2.573,0.058,3.354,0.867,3.412,1.619l0.027,0.318
			c0.03,0.434,0.088,0.578,0.318,0.578c0.175,0,0.232-0.173,0.26-0.462c0-0.751,0.088-2.746,0.088-3.353
			c0-0.433-0.028-0.607-0.231-0.607c-0.231,0-0.925,0.289-2.774,0.289h-11.445c-0.954,0-2.053-0.058-2.89-0.145
			c-0.724-0.058-1.012-0.347-1.244-0.347c-0.173,0-0.261,0.173-0.346,0.549c-0.059,0.231-0.608,2.861-0.608,3.324
			c0,0.318,0.058,0.462,0.261,0.462c0.174,0,0.26-0.115,0.317-0.347c0.058-0.231,0.203-0.578,0.492-1.012
			c0.435-0.636,1.128-0.78,2.804-0.838l4.307-0.116V75.072z"/>
	</g>
</g>
</svg>
